<mxfile host="app.diagrams.net" modified="2021-12-31T07:55:30.129Z" agent="5.0 (Macintosh; Intel Mac OS X 10_15_7) AppleWebKit/537.36 (KHTML, like Gecko) Chrome/96.0.4664.110 Safari/537.36" etag="z49nQQ3K8CAmE5UhHlO_" version="16.1.0" type="github">
  <diagram id="JZOhCPEI1QGyCAJnO71S" name="Page-1">
    <mxGraphModel dx="894" dy="451" grid="1" gridSize="10" guides="1" tooltips="1" connect="1" arrows="1" fold="1" page="1" pageScale="1" pageWidth="827" pageHeight="1169" math="0" shadow="0">
      <root>
        <mxCell id="0" />
        <mxCell id="1" parent="0" />
        <mxCell id="9ojKCH8w_O7dHfVfUO9V-1" value="SYN_SENT" style="rounded=0;whiteSpace=wrap;html=1;fontSize=16;fontStyle=1;fillColor=#dae8fc;strokeColor=#6c8ebf;gradientColor=#7ea6e0;" vertex="1" parent="1">
          <mxGeometry x="160" y="80" width="120" height="130" as="geometry" />
        </mxCell>
        <mxCell id="9ojKCH8w_O7dHfVfUO9V-2" value="SYN&lt;br&gt;seq=100" style="endArrow=classic;html=1;rounded=0;exitX=1;exitY=0;exitDx=0;exitDy=0;entryX=0;entryY=1;entryDx=0;entryDy=0;fontSize=16;fillColor=#dae8fc;gradientColor=#7ea6e0;strokeColor=#6c8ebf;strokeWidth=2;" edge="1" parent="1" source="9ojKCH8w_O7dHfVfUO9V-1" target="9ojKCH8w_O7dHfVfUO9V-4">
          <mxGeometry width="50" height="50" relative="1" as="geometry">
            <mxPoint x="300" y="60" as="sourcePoint" />
            <mxPoint x="480" y="125" as="targetPoint" />
          </mxGeometry>
        </mxCell>
        <mxCell id="9ojKCH8w_O7dHfVfUO9V-3" value="SYN+ACK&lt;br&gt;seq=300，ack=101" style="edgeStyle=none;rounded=0;orthogonalLoop=1;jettySize=auto;html=1;fontSize=16;exitX=0;exitY=1;exitDx=0;exitDy=0;fillColor=#dae8fc;gradientColor=#7ea6e0;strokeColor=#6c8ebf;strokeWidth=2;entryX=1;entryY=1;entryDx=0;entryDy=0;" edge="1" parent="1" source="9ojKCH8w_O7dHfVfUO9V-4" target="9ojKCH8w_O7dHfVfUO9V-1">
          <mxGeometry relative="1" as="geometry">
            <mxPoint x="280" y="290" as="targetPoint" />
          </mxGeometry>
        </mxCell>
        <mxCell id="9ojKCH8w_O7dHfVfUO9V-4" value="LISTEN" style="rounded=0;whiteSpace=wrap;html=1;fontSize=16;fontStyle=1;fillColor=#e6d0de;strokeColor=#996185;gradientColor=#d5739d;" vertex="1" parent="1">
          <mxGeometry x="520" y="70" width="120" height="60" as="geometry" />
        </mxCell>
        <mxCell id="9ojKCH8w_O7dHfVfUO9V-5" value="SYN_RECV" style="rounded=0;whiteSpace=wrap;html=1;fontSize=16;fontStyle=1;fillColor=#dae8fc;strokeColor=#6c8ebf;gradientColor=#66B2FF;" vertex="1" parent="1">
          <mxGeometry x="520" y="130" width="120" height="110" as="geometry" />
        </mxCell>
        <mxCell id="9ojKCH8w_O7dHfVfUO9V-6" value="ACK&lt;br&gt;seq=101&lt;br&gt;ack=301" style="edgeStyle=none;rounded=0;orthogonalLoop=1;jettySize=auto;html=1;entryX=0;entryY=0;entryDx=0;entryDy=0;fontFamily=Helvetica;fontSize=16;exitX=1;exitY=0;exitDx=0;exitDy=0;fillColor=#dae8fc;gradientColor=#7ea6e0;strokeColor=#6c8ebf;strokeWidth=2;" edge="1" parent="1" source="9ojKCH8w_O7dHfVfUO9V-7" target="9ojKCH8w_O7dHfVfUO9V-8">
          <mxGeometry relative="1" as="geometry" />
        </mxCell>
        <mxCell id="9ojKCH8w_O7dHfVfUO9V-7" value="&lt;span style=&quot;font-weight: 700;&quot;&gt;ESTABLISHED&lt;/span&gt;" style="rounded=0;whiteSpace=wrap;html=1;fontSize=16;fontFamily=Helvetica;fillColor=#d5e8d4;strokeColor=#82b366;gradientColor=#97d077;" vertex="1" parent="1">
          <mxGeometry x="160" y="210" width="120" height="220" as="geometry" />
        </mxCell>
        <mxCell id="9ojKCH8w_O7dHfVfUO9V-8" value="&lt;span style=&quot;font-weight: 700;&quot;&gt;ESTABLISHED&lt;/span&gt;" style="rounded=0;whiteSpace=wrap;html=1;fontSize=16;fontFamily=Helvetica;fillColor=#d5e8d4;strokeColor=#82b366;gradientColor=#97d077;" vertex="1" parent="1">
          <mxGeometry x="520" y="240" width="120" height="160" as="geometry" />
        </mxCell>
        <mxCell id="9ojKCH8w_O7dHfVfUO9V-9" value="" style="endArrow=none;dashed=1;html=1;dashPattern=1 3;strokeWidth=2;rounded=0;fontFamily=Helvetica;fontSize=16;fontColor=#FF6666;" edge="1" parent="1">
          <mxGeometry width="50" height="50" relative="1" as="geometry">
            <mxPoint x="105" y="480" as="sourcePoint" />
            <mxPoint x="685" y="490" as="targetPoint" />
          </mxGeometry>
        </mxCell>
        <mxCell id="9ojKCH8w_O7dHfVfUO9V-10" value="建立与上一个连接&lt;br&gt;相同四元组的连接" style="text;html=1;align=center;verticalAlign=middle;resizable=0;points=[];autosize=1;strokeColor=#36393d;fillColor=#ffff88;fontSize=16;fontFamily=Helvetica;" vertex="1" parent="1">
          <mxGeometry x="650" y="470" width="140" height="40" as="geometry" />
        </mxCell>
        <mxCell id="9ojKCH8w_O7dHfVfUO9V-11" value="&lt;font color=&quot;#ff6666&quot;&gt;&lt;b&gt;PUSH, ACK&lt;br&gt;seq=101，ack=301&lt;br&gt;len=10&lt;/b&gt;&lt;/font&gt;" style="edgeStyle=none;rounded=0;orthogonalLoop=1;jettySize=auto;html=1;fontFamily=Helvetica;fontSize=16;exitX=1;exitY=0;exitDx=0;exitDy=0;fillColor=#f8cecc;strokeColor=#b85450;strokeWidth=2;" edge="1" parent="1">
          <mxGeometry relative="1" as="geometry">
            <mxPoint x="280" y="280" as="sourcePoint" />
            <mxPoint x="460" y="320" as="targetPoint" />
          </mxGeometry>
        </mxCell>
        <mxCell id="9ojKCH8w_O7dHfVfUO9V-12" value="CLOSED" style="rounded=0;whiteSpace=wrap;html=1;fontSize=16;fontStyle=1;fillColor=#f5f5f5;strokeColor=#666666;gradientColor=#b3b3b3;" vertex="1" parent="1">
          <mxGeometry x="520" y="400" width="120" height="80" as="geometry" />
        </mxCell>
        <mxCell id="9ojKCH8w_O7dHfVfUO9V-13" value="RST" style="rounded=0;orthogonalLoop=1;jettySize=auto;html=1;fontSize=16;exitX=0;exitY=0;exitDx=0;exitDy=0;fillColor=#f8cecc;strokeColor=#FF6666;strokeWidth=2;fontColor=#FF6666;fontStyle=1;entryX=1;entryY=0;entryDx=0;entryDy=0;" edge="1" parent="1" source="9ojKCH8w_O7dHfVfUO9V-12" target="9ojKCH8w_O7dHfVfUO9V-14">
          <mxGeometry relative="1" as="geometry">
            <mxPoint x="419.03999999999996" y="400" as="sourcePoint" />
            <mxPoint x="290" y="430" as="targetPoint" />
          </mxGeometry>
        </mxCell>
        <mxCell id="9ojKCH8w_O7dHfVfUO9V-14" value="CLOSED" style="rounded=0;whiteSpace=wrap;html=1;fontSize=16;fontStyle=1;fillColor=#f5f5f5;strokeColor=#666666;gradientColor=#b3b3b3;" vertex="1" parent="1">
          <mxGeometry x="160" y="430" width="120" height="50" as="geometry" />
        </mxCell>
        <mxCell id="9ojKCH8w_O7dHfVfUO9V-15" value="LISTEN" style="rounded=0;whiteSpace=wrap;html=1;fontSize=16;fontStyle=1;fillColor=#e6d0de;strokeColor=#996185;gradientColor=#d5739d;" vertex="1" parent="1">
          <mxGeometry x="520" y="490" width="120" height="40" as="geometry" />
        </mxCell>
        <mxCell id="9ojKCH8w_O7dHfVfUO9V-16" value="SYN_SENT" style="rounded=0;whiteSpace=wrap;html=1;fontSize=16;fontStyle=1;fillColor=#dae8fc;strokeColor=#6c8ebf;gradientColor=#7ea6e0;" vertex="1" parent="1">
          <mxGeometry x="160" y="480" width="120" height="140" as="geometry" />
        </mxCell>
        <mxCell id="9ojKCH8w_O7dHfVfUO9V-17" value="SYN&lt;br&gt;seq=500" style="endArrow=classic;html=1;rounded=0;exitX=1;exitY=0;exitDx=0;exitDy=0;entryX=0;entryY=1;entryDx=0;entryDy=0;fontSize=16;fillColor=#dae8fc;gradientColor=#7ea6e0;strokeColor=#6c8ebf;strokeWidth=2;" edge="1" parent="1">
          <mxGeometry width="50" height="50" relative="1" as="geometry">
            <mxPoint x="280" y="480" as="sourcePoint" />
            <mxPoint x="520" y="530" as="targetPoint" />
          </mxGeometry>
        </mxCell>
        <mxCell id="9ojKCH8w_O7dHfVfUO9V-18" value="SYN_RECV" style="rounded=0;whiteSpace=wrap;html=1;fontSize=16;fontStyle=1;fillColor=#dae8fc;strokeColor=#6c8ebf;gradientColor=#66B2FF;" vertex="1" parent="1">
          <mxGeometry x="520" y="530" width="120" height="120" as="geometry" />
        </mxCell>
        <mxCell id="9ojKCH8w_O7dHfVfUO9V-19" value="&lt;span style=&quot;font-weight: 700;&quot;&gt;ESTABLISHED&lt;/span&gt;" style="rounded=0;whiteSpace=wrap;html=1;fontSize=16;fontFamily=Helvetica;fillColor=#d5e8d4;strokeColor=#82b366;gradientColor=#97d077;" vertex="1" parent="1">
          <mxGeometry x="520" y="650" width="120" height="120" as="geometry" />
        </mxCell>
        <mxCell id="9ojKCH8w_O7dHfVfUO9V-20" value="&lt;span style=&quot;font-weight: 700;&quot;&gt;ESTABLISHED&lt;/span&gt;" style="rounded=0;whiteSpace=wrap;html=1;fontSize=16;fontFamily=Helvetica;fillColor=#d5e8d4;strokeColor=#82b366;gradientColor=#97d077;" vertex="1" parent="1">
          <mxGeometry x="160" y="620" width="120" height="150" as="geometry" />
        </mxCell>
        <mxCell id="9ojKCH8w_O7dHfVfUO9V-21" value="SYN+ACK&lt;br&gt;seq=800，ack=501" style="edgeStyle=none;rounded=0;orthogonalLoop=1;jettySize=auto;html=1;fontSize=16;exitX=0;exitY=1;exitDx=0;exitDy=0;fillColor=#dae8fc;gradientColor=#7ea6e0;strokeColor=#6c8ebf;strokeWidth=2;entryX=1;entryY=1;entryDx=0;entryDy=0;" edge="1" parent="1">
          <mxGeometry relative="1" as="geometry">
            <mxPoint x="280" y="620" as="targetPoint" />
            <mxPoint x="520" y="540" as="sourcePoint" />
          </mxGeometry>
        </mxCell>
        <mxCell id="9ojKCH8w_O7dHfVfUO9V-22" value="ACK&lt;br&gt;seq=501&lt;br&gt;ack=801" style="edgeStyle=none;rounded=0;orthogonalLoop=1;jettySize=auto;html=1;entryX=0;entryY=0;entryDx=0;entryDy=0;fontFamily=Helvetica;fontSize=16;exitX=1;exitY=0;exitDx=0;exitDy=0;fillColor=#dae8fc;gradientColor=#7ea6e0;strokeColor=#6c8ebf;strokeWidth=2;" edge="1" parent="1">
          <mxGeometry relative="1" as="geometry">
            <mxPoint x="280" y="620" as="sourcePoint" />
            <mxPoint x="520" y="650" as="targetPoint" />
          </mxGeometry>
        </mxCell>
        <mxCell id="9ojKCH8w_O7dHfVfUO9V-23" value="刚好历史数据报文的序列号&lt;br&gt;在服务端接收窗口范围内，&lt;br&gt;所以历史数据报文会被接收" style="text;html=1;align=center;verticalAlign=middle;resizable=0;points=[];autosize=1;strokeColor=#36393d;fillColor=#ffff88;fontSize=16;fontFamily=Helvetica;" vertex="1" parent="1">
          <mxGeometry x="640" y="680" width="210" height="60" as="geometry" />
        </mxCell>
        <mxCell id="9ojKCH8w_O7dHfVfUO9V-24" value="被网络阻塞" style="text;html=1;align=center;verticalAlign=middle;resizable=0;points=[];autosize=1;strokeColor=#b85450;fillColor=#f8cecc;fontSize=16;" vertex="1" parent="1">
          <mxGeometry x="414" y="330" width="100" height="20" as="geometry" />
        </mxCell>
        <mxCell id="9ojKCH8w_O7dHfVfUO9V-25" value="&lt;b style=&quot;color: rgb(255 , 102 , 102)&quot;&gt;PUSH, ACK&lt;br&gt;seq=101，ack=201&lt;br&gt;len=10&lt;/b&gt;" style="edgeStyle=none;rounded=0;orthogonalLoop=1;jettySize=auto;html=1;fontFamily=Helvetica;fontSize=16;fillColor=#f8cecc;strokeColor=#b85450;strokeWidth=2;" edge="1" parent="1">
          <mxGeometry relative="1" as="geometry">
            <mxPoint x="340" y="690" as="sourcePoint" />
            <mxPoint x="520" y="722.5" as="targetPoint" />
          </mxGeometry>
        </mxCell>
        <mxCell id="9ojKCH8w_O7dHfVfUO9V-26" value="服务端进程重启" style="text;html=1;align=center;verticalAlign=middle;resizable=0;points=[];autosize=1;strokeColor=#36393d;fillColor=#ffff88;fontSize=16;fontFamily=Helvetica;" vertex="1" parent="1">
          <mxGeometry x="650" y="390" width="130" height="20" as="geometry" />
        </mxCell>
      </root>
    </mxGraphModel>
  </diagram>
</mxfile>
